<?xml version="1.0" standalone="no"?>
<!DOCTYPE svg PUBLIC "-//W3C//DTD SVG 20010904//EN"
 "http://www.w3.org/TR/2001/REC-SVG-20010904/DTD/svg10.dtd">
<svg version="1.0" xmlns="http://www.w3.org/2000/svg"
 width="540.000000pt" height="540.000000pt" viewBox="0 0 540.000000 540.000000"
 preserveAspectRatio="xMidYMid meet">

<g transform="translate(0.000000,540.000000) scale(0.100000,-0.100000)"
fill="#ffffff" stroke="none">
<path d="M2855 4988 c-146 -14 -313 -47 -423 -85 -59 -20 -112 -33 -125 -30
-12 3 -62 17 -110 31 -80 22 -96 24 -177 16 -110 -12 -243 -68 -342 -147 -218
-171 -297 -243 -372 -338 -60 -75 -109 -125 -123 -125 -40 0 -184 -57 -228
-90 -84 -63 -101 -82 -157 -170 -41 -64 -68 -125 -110 -250 -65 -190 -83 -266
-104 -434 -13 -111 -17 -123 -43 -146 -114 -102 -171 -236 -171 -405 0 -85 7
-130 40 -267 47 -199 75 -278 147 -426 52 -106 55 -116 45 -150 -41 -145 -16
-290 75 -434 42 -66 87 -118 179 -204 129 -122 250 -219 324 -262 111 -62 140
-85 146 -111 4 -14 25 -61 47 -104 82 -161 226 -246 512 -304 151 -31 193 -35
378 -40 195 -5 210 -7 235 -27 173 -142 367 -153 657 -40 157 61 305 133 374
181 143 101 147 103 209 99 232 -15 386 77 577 344 95 133 194 300 211 353 23
76 68 155 92 166 88 39 174 118 236 216 30 48 74 208 82 297 15 180 9 406 -15
544 l-23 132 25 43 c47 80 65 143 70 235 8 134 -28 244 -146 447 -102 176
-167 267 -269 375 -52 55 -68 79 -68 101 0 76 -31 186 -72 259 -70 121 -164
197 -389 310 -178 89 -251 117 -427 163 -64 16 -85 27 -95 45 -7 12 -39 50
-71 84 -43 45 -81 71 -140 99 -121 58 -240 71 -461 49z m284 -158 c60 -10 181
-62 181 -78 0 -4 -25 -18 -55 -31 -30 -13 -150 -95 -266 -183 -115 -87 -214
-158 -219 -156 -5 2 -54 64 -110 138 -56 74 -122 156 -148 182 l-45 47 29 11
c55 22 209 52 329 65 155 16 225 17 304 5z m-1025 -69 c5 -1 0 -11 -11 -23
-36 -39 -50 -73 -168 -393 -37 -99 -70 -183 -74 -187 -3 -4 -76 20 -161 53
-85 33 -184 67 -218 74 -35 8 -66 16 -69 19 -9 9 62 90 145 164 125 113 263
216 337 251 63 30 155 51 195 45 8 -1 19 -3 24 -3z m263 -143 c71 -70 263
-314 263 -336 0 -15 -120 -101 -246 -178 -60 -36 -132 -83 -161 -105 -29 -21
-56 -39 -61 -39 -7 0 -154 91 -170 105 -2 2 10 36 27 77 16 40 59 152 94 249
79 215 93 242 137 273 19 14 37 25 39 26 2 0 37 -33 78 -72z m1072 -65 c39
-146 40 -152 56 -405 l6 -86 -30 -7 c-17 -4 -148 -7 -290 -8 l-260 -2 -38 84
c-21 46 -39 87 -41 91 -2 6 376 291 468 353 14 10 44 17 72 17 46 0 47 -1 57
-37z m284 -39 c43 -14 153 -64 245 -110 186 -93 271 -158 322 -248 40 -69 39
-77 -7 -64 -40 11 -130 8 -430 -13 -100 -7 -184 -11 -187 -8 -2 2 -9 76 -16
164 -6 88 -18 192 -26 230 -8 39 -14 71 -14 73 0 8 45 -1 113 -24z m-2323
-378 c68 -13 363 -118 383 -135 10 -10 -48 -161 -105 -277 -25 -49 -60 -126
-78 -171 l-34 -83 -102 0 -101 0 -17 83 c-10 45 -31 143 -48 217 -58 262 -60
278 -42 332 18 56 23 57 144 34z m1376 -157 c64 -140 143 -338 189 -469 13
-36 34 -95 48 -132 23 -63 24 -68 7 -68 -22 0 -96 57 -194 150 -63 59 -300
243 -459 355 -31 22 -57 43 -57 47 0 6 120 85 205 133 28 16 81 53 120 81 38
29 71 51 73 50 1 -2 32 -68 68 -147z m-1690 73 c1 -39 24 -171 57 -322 31
-140 54 -257 51 -261 -2 -4 -21 -10 -41 -13 -115 -21 -324 -71 -361 -87 -24
-11 -47 -19 -51 -19 -4 0 -4 29 0 64 19 159 120 458 190 562 39 58 126 142
149 144 3 0 6 -30 6 -68z m3204 -134 c22 -13 40 -28 40 -35 0 -7 -14 -50 -31
-98 -27 -74 -57 -134 -163 -329 -11 -21 -26 -41 -33 -43 -14 -6 -151 71 -270
153 -51 34 -122 79 -158 99 -54 31 -64 40 -60 58 2 12 9 56 15 97 6 41 14 78
18 81 4 4 68 10 142 14 74 4 173 11 220 15 175 15 238 12 280 -12z m-2225 -92
c33 -23 83 -54 110 -71 46 -28 382 -277 448 -331 23 -20 25 -24 11 -32 -20
-11 -77 -6 -224 18 -63 11 -212 26 -330 35 -274 19 -332 24 -337 29 -3 2 29
75 70 163 41 87 78 169 82 182 4 13 14 40 22 58 l14 34 37 -22 c20 -13 64 -41
97 -63z m1410 40 c-2 -12 -11 -70 -20 -131 -22 -144 -37 -229 -74 -405 -49
-227 -65 -291 -76 -293 -16 -3 -52 83 -80 194 -27 104 -80 259 -174 507 -28
73 -51 137 -51 142 0 5 102 8 240 8 237 -1 239 -2 235 -22z m1026 -153 c52
-58 138 -185 212 -314 83 -143 118 -250 111 -340 -3 -35 -6 -65 -8 -67 -2 -2
-30 17 -63 41 -32 25 -94 65 -138 88 -263 142 -325 176 -346 190 l-23 16 56
99 c76 136 123 231 138 282 7 23 16 42 20 42 4 0 23 -17 41 -37z m-721 -304
c52 -36 121 -78 153 -94 31 -17 56 -35 55 -41 -10 -41 -582 -639 -601 -627
-14 9 1 89 43 218 33 103 97 372 140 590 7 33 14 63 16 67 6 9 71 -29 194
-113z m-2522 -229 c12 -58 24 -136 28 -175 3 -38 15 -112 25 -164 11 -52 16
-98 12 -102 -5 -4 -43 -30 -86 -58 l-79 -51 -205 206 c-198 199 -227 236 -235
298 -3 28 0 31 87 67 106 44 416 113 426 95 3 -6 16 -58 27 -116z m682 115
c313 -21 340 -24 333 -42 -6 -16 -100 -65 -226 -117 -49 -20 -98 -43 -110 -50
-12 -7 -65 -36 -117 -63 -52 -28 -113 -60 -135 -73 -81 -46 -202 -110 -207
-110 -7 0 -25 100 -38 218 -6 52 -17 125 -25 163 -8 39 -15 75 -15 80 0 14
295 11 540 -6z m861 -104 c57 -16 116 -31 131 -35 27 -6 202 -185 224 -229 6
-12 17 -58 23 -102 7 -44 17 -102 23 -128 11 -52 5 -76 -53 -204 -16 -34 -35
-77 -42 -95 -11 -26 -43 -53 -132 -113 l-118 -80 -141 -6 -141 -6 -65 32 c-36
18 -98 53 -138 79 l-72 47 -60 123 c-51 105 -60 131 -60 177 1 64 25 243 36
261 4 7 46 59 92 115 66 80 93 106 126 118 98 36 213 72 237 74 14 0 72 -12
130 -28z m1439 -48 c19 -11 105 -57 190 -103 85 -46 174 -97 198 -113 44 -29
82 -79 82 -107 -1 -18 -118 -111 -203 -160 -163 -95 -241 -131 -253 -118 -15
16 -119 223 -129 258 -4 14 -32 74 -62 133 -46 92 -52 111 -41 125 7 10 37 45
67 80 l54 62 31 -19 c17 -10 47 -28 66 -38z m-3422 -395 l206 -208 -137 -137
c-76 -76 -146 -152 -156 -169 -11 -18 -24 -35 -30 -38 -23 -15 -93 172 -146
391 -42 173 -46 277 -15 367 28 82 31 84 53 40 11 -21 112 -132 225 -246z
m1222 188 c0 -20 -29 -70 -110 -191 -60 -88 -91 -142 -192 -325 -14 -25 -49
-90 -78 -145 -29 -55 -56 -104 -60 -108 -9 -10 -57 40 -153 158 -36 44 -88
102 -116 130 -28 27 -51 52 -51 56 0 4 37 30 83 59 45 29 107 70 137 90 30 20
136 81 235 135 99 54 203 111 230 127 56 31 75 35 75 14z m1883 -79 c14 -29
40 -85 56 -125 16 -39 50 -111 75 -159 25 -48 42 -90 38 -94 -4 -3 -52 -18
-107 -34 -55 -15 -118 -34 -140 -41 -22 -8 -80 -23 -130 -34 -49 -10 -160 -34
-245 -53 -229 -51 -220 -50 -220 -28 0 20 54 73 175 170 44 35 166 151 270
257 105 105 192 192 195 193 3 0 18 -23 33 -52z m846 -348 c8 -95 6 -308 -5
-409 -9 -86 -42 -188 -81 -246 -38 -57 -63 -69 -63 -31 0 24 -56 143 -128 272
-21 39 -60 111 -87 160 -26 50 -52 94 -56 100 -19 20 -6 35 69 73 120 62 251
139 290 172 46 37 49 32 61 -91z m-2743 -156 c2 -171 12 -425 19 -463 1 -8 6
-66 10 -128 l7 -113 -28 7 c-16 3 -83 24 -149 44 -66 21 -156 46 -200 56 -44
9 -81 18 -83 19 -3 3 23 64 77 177 22 48 41 90 41 93 0 8 193 365 245 453 54
92 60 78 61 -145z m-805 -20 c47 -49 105 -113 129 -143 24 -30 73 -85 108
-122 l65 -67 -43 -96 c-29 -64 -48 -94 -56 -91 -7 3 -87 21 -176 41 -399 87
-388 84 -432 125 l-41 38 50 74 c42 61 289 327 305 328 3 0 44 -39 91 -87z
m3012 -95 c26 -51 70 -133 98 -183 114 -202 129 -236 129 -292 0 -49 -2 -54
-27 -64 -35 -14 -264 -17 -407 -5 l-109 8 7 97 c4 53 16 145 27 206 10 60 22
147 26 192 l6 81 86 25 c47 14 93 26 101 26 9 1 34 -35 63 -91z m-419 -60 c-3
-29 -12 -89 -21 -133 -8 -44 -18 -127 -23 -184 -5 -57 -11 -105 -13 -107 -2
-2 -23 3 -48 10 -24 8 -84 27 -134 41 -108 32 -291 96 -475 165 -74 28 -143
54 -153 57 -10 3 -16 11 -14 17 6 19 71 35 210 52 134 16 424 73 607 119 30 7
59 14 63 14 4 1 5 -23 1 -51z m-1572 -10 c19 -24 61 -88 94 -143 32 -55 134
-201 227 -324 92 -123 167 -224 165 -225 -9 -5 -152 -48 -208 -61 -36 -9 -107
-31 -157 -49 -51 -19 -93 -32 -93 -31 0 1 -11 81 -24 176 -40 286 -69 699 -50
699 6 0 27 -19 46 -42z m386 -168 c29 -11 94 -41 144 -66 96 -48 166 -76 438
-176 91 -33 167 -62 169 -64 6 -6 -45 -68 -132 -162 -45 -49 -100 -114 -122
-145 -22 -31 -43 -57 -47 -57 -9 0 -222 246 -281 325 -25 33 -71 95 -104 137
-74 99 -146 197 -156 214 -12 21 28 18 91 -6z m-1836 -197 c43 -20 101 -34
448 -110 63 -13 118 -28 123 -32 4 -4 -8 -79 -28 -167 -19 -88 -38 -193 -41
-232 l-7 -71 -36 19 c-109 57 -377 303 -447 411 -46 70 -94 221 -66 207 4 -2
28 -14 54 -25z m2865 -189 c74 -21 92 -30 89 -43 -3 -9 -12 -131 -21 -271 -9
-140 -21 -272 -26 -293 -6 -21 -23 -52 -39 -70 l-29 -32 -84 42 c-67 33 -212
134 -344 240 -9 7 -12 17 -7 25 20 34 130 170 184 228 33 36 84 95 113 133 28
37 56 67 61 67 6 0 52 -12 103 -26z m-1822 -66 c61 -20 142 -43 182 -53 l71
-17 12 -86 c6 -48 12 -93 13 -100 1 -9 -86 -47 -259 -111 -144 -54 -274 -101
-290 -104 -16 -3 -48 -1 -71 5 l-43 10 0 77 c0 85 16 186 55 349 l26 109 97
-22 c53 -12 147 -38 207 -57z m2392 -21 c84 -1 153 -5 153 -9 0 -16 -50 -117
-90 -183 -83 -135 -208 -301 -266 -351 -83 -71 -207 -121 -189 -76 21 52 28
100 46 347 11 149 21 275 23 281 3 7 30 7 87 1 46 -4 153 -9 236 -10z m-1317
-257 c41 -46 60 -75 56 -86 -3 -8 -33 -50 -66 -92 -33 -42 -109 -142 -168
-222 -103 -139 -137 -171 -193 -185 -24 -6 -30 0 -76 77 -27 46 -59 110 -72
143 -55 143 -91 259 -84 266 13 13 170 67 273 94 52 13 127 35 165 49 39 13
77 25 86 25 10 1 45 -31 79 -69z m-751 -197 c50 -143 116 -312 131 -333 9 -14
23 -36 30 -49 l12 -24 -133 6 c-177 7 -412 54 -518 103 -75 34 -161 105 -161
132 0 7 4 11 10 7 18 -11 137 25 360 109 124 47 232 85 240 85 10 1 21 -14 29
-36z m1068 -107 c76 -57 164 -118 197 -136 l58 -33 -23 -18 c-58 -44 -185
-109 -329 -167 -183 -74 -286 -94 -390 -74 -71 13 -82 19 -57 33 36 21 86 80
242 287 87 117 160 212 161 212 2 0 65 -47 141 -104z"/>
</g>
</svg>
